<svg width="24.000000" height="24.000000" viewBox="0 0 24 24" fill="none" xmlns="http://www.w3.org/2000/svg" xmlns:xlink="http://www.w3.org/1999/xlink">
	<defs>
		<clipPath id="clip122_9753">
			<rect id="moon-fill" width="24.000000" height="24.000000" fill="white" fill-opacity="0"/>
		</clipPath>
	</defs>
	<rect id="moon-fill" width="24.000000" height="24.000000" fill="#FFFFFF" fill-opacity="0"/>
	<g clip-path="url(#clip122_9753)">
		<path id="矢量 34" d="M11.37 2.01C10.64 2.7 10.05 3.53 9.64 4.45C9.23 5.37 9.01 6.36 8.99 7.37C8.97 8.38 9.16 9.38 9.53 10.31C9.91 11.24 10.47 12.09 11.18 12.8C11.9 13.52 12.75 14.08 13.68 14.46C14.61 14.83 15.61 15.02 16.62 15C17.63 14.98 18.62 14.76 19.54 14.35C20.46 13.94 21.29 13.35 21.98 12.61C21.66 17.85 17.31 22 12 22C6.47 22 2 17.52 2 12C2 6.68 6.14 2.33 11.37 2.01Z" fill="#444444" fill-opacity="1.000000" fill-rule="evenodd"/>
	</g>
</svg>