<svg width="369.895752" height="369.900421" viewBox="0 0 369.896 369.9" fill="none" xmlns="http://www.w3.org/2000/svg" xmlns:xlink="http://www.w3.org/1999/xlink">
	<desc>
			Created with Pixso.
	</desc>
	<defs/>
	<rect id="logomonocolor" width="279.458862" height="279.468414" transform="translate(115.353516 0.000000) rotate(24.378355)" fill="#FFFFFF" fill-opacity="0"/>
	<path id="Intersect" d="M316.554 231.911C315.297 235.426 313.902 238.888 312.371 242.288C306.584 255.186 299.071 266.775 290.227 276.906C283.807 284.249 276.669 290.855 268.959 296.649C259.978 303.398 247.506 299.658 242.127 289.795L225.002 258.398C219.626 248.541 223.613 236.365 231.267 228.151C236.448 222.591 240.521 216.196 243.379 209.325C246.81 201.131 248.379 192.595 248.273 184.202C248.271 183.992 248.267 183.782 248.263 183.571C248.074 172.392 253.242 160.75 263.778 157.016L297.519 145.056C308.022 141.333 319.706 146.752 322.02 157.598C326.733 181.133 325.166 205.123 318.092 227.336C317.604 228.875 317.091 230.401 316.554 231.911ZM226.615 51.5864C228.81 52.2734 230.987 53.014 233.144 53.8074C258.789 63.2017 280.015 79.3665 295.554 99.54C301.918 108.365 298.345 120.516 288.771 125.956L257.677 143.627C247.916 149.174 235.672 145.4 227.326 137.89C220.931 132.137 213.494 127.823 205.533 125.09C199.016 122.839 192.368 121.721 185.809 121.633C176.366 121.5 167.148 123.506 158.776 127.313C151.975 130.39 145.978 134.533 140.895 139.459C134.519 145.629 129.606 153.006 126.336 161.027C123.323 168.382 121.802 175.986 121.633 183.5C121.438 191.976 122.966 200.306 125.992 208.025C128.917 215.528 133.128 222.159 138.274 227.764C144.009 234.018 150.888 238.97 158.425 242.442C167.062 246.439 176.151 248.315 185.1 248.288C196.321 248.253 207.945 253.624 211.509 264.264L222.878 298.209C226.384 308.676 220.899 320.146 210.213 322.425C183.886 327.296 157.259 324.328 133.281 314.781C132.513 314.476 131.749 314.165 130.99 313.848C129.109 313.06 127.245 312.23 125.401 311.361C113.393 305.72 102.564 298.578 93.0317 290.265C77.9341 277.082 66.0259 260.905 57.863 243.035C57.496 242.234 57.1372 241.431 56.7867 240.627C55.9968 238.806 55.2455 236.969 54.5336 235.116C49.7628 222.75 46.8772 210.116 45.735 197.532C43.9349 177.556 46.5148 157.622 52.9761 139.056C53.2448 138.281 53.5198 137.509 53.8008 136.742C54.5075 134.823 55.2557 132.92 56.045 131.034C61.2569 118.539 68.0832 107.202 76.1808 97.1624C88.6049 81.7786 104.064 69.3788 121.333 60.5524C121.948 60.2372 122.564 59.927 123.181 59.6218C125.132 58.6618 127.104 57.7473 129.096 56.879C141.89 51.2843 155.073 47.7669 168.268 46.1774C187.483 43.8746 206.797 45.6454 224.995 51.0932C225.537 51.2546 226.077 51.419 226.615 51.5864Z" clip-rule="evenodd" fill="#0CA6F9" fill-opacity="1.000000" fill-rule="evenodd"/>
</svg>
