<svg width="100.000000" height="100.000000" viewBox="0 0 100 100" fill="none" xmlns="http://www.w3.org/2000/svg" xmlns:xlink="http://www.w3.org/1999/xlink">
	<style>
		#el1 {
			fill: #000000
		}

		#el2 {
			fill: #0CA6F9
		}

	</style>
	<g>
		<path id="el1" d="M44.18 6.32C44.89 6.23 45.59 6.16 46.3 6.11C54.78 5.48 62.88 7.34 69.87 11.06C72.81 12.74 73.36 16.65 71.35 19.42L64.8 28.43C62.75 31.25 58.79 31.76 55.46 30.7C52.91 29.89 50.25 29.62 47.65 29.87C45.51 30.07 43.47 30.61 41.59 31.43C38.89 32.61 36.53 34.37 34.64 36.53C33.15 38.24 32.01 40.13 31.2 42.12C30.14 44.75 29.68 47.54 29.8 50.3C29.89 52.67 30.41 54.94 31.27 57.02C32.31 59.55 33.86 61.79 35.77 63.65C37.52 65.34 39.5 66.65 41.61 67.57C44.09 68.65 46.74 69.19 49.38 69.2C52.33 69.22 55.14 68.58 57.67 67.43C60.85 65.98 64.83 66.01 67.21 68.57L74.8 76.73C77.14 79.25 77.05 83.2 74.32 85.22C67.48 89.99 59.55 92.57 51.52 92.94C51.27 92.95 51.02 92.96 50.77 92.97C50.13 92.99 49.49 92.99 48.85 92.98C44.67 92.93 40.64 92.28 36.83 91.12C30.91 89.32 25.49 86.28 20.92 82.29C20.73 82.12 20.54 81.95 20.35 81.79C19.87 81.36 19.41 80.92 18.96 80.47C15.97 77.53 13.5 74.26 11.54 70.78C8.52 65.39 6.72 59.47 6.17 53.43C6.15 53.2 6.13 52.97 6.11 52.73C6.06 52.08 6.03 51.42 6.01 50.76C5.88 46.5 6.37 42.35 7.41 38.42C8.96 32.52 11.74 27.07 15.47 22.39C15.59 22.23 15.72 22.07 15.85 21.91C16.29 21.38 16.74 20.86 17.2 20.35C20.11 17.11 23.41 14.42 26.95 12.27C32.1 9.16 37.79 7.18 43.64 6.39C43.82 6.36 44 6.34 44.18 6.32Z" fill="#EFF9FE" fill-opacity="1.000000" fill-rule="evenodd"/>
		<path id="el2" d="M92.99 49.37C92.98 48.2 92.93 47.02 92.84 45.85C92.79 45.37 92.75 44.88 92.69 44.4C91.84 37.19 89.2 30.19 84.84 24.13C82.8 21.34 78.78 21.31 76.28 23.71L68.25 31.44C65.75 33.85 65.77 37.8 67.26 40.95C67.31 41.06 67.37 41.18 67.42 41.3C68.48 43.61 69.1 46.16 69.19 48.84C69.27 51.18 68.93 53.53 68.17 55.79C67.06 59.1 67.49 63.06 70.28 65.17L79.17 71.87C81.97 73.98 85.98 73.43 87.66 70.37C89.09 67.77 90.25 65.01 91.12 62.14C92.35 58.1 93 53.81 92.99 49.37Z" fill="#0CA6F9" fill-opacity="1.000000" fill-rule="evenodd"/>
	</g>
</svg>
